Coordinates
version=1
nRows=8
nColumns=63
inDegrees=yes

Units are S.I. units (second, meters, Newtons, ...)
If the header above contains a line with 'inDegrees', this indicates whether rotational values are in degrees (yes) or radians (no).

endheader
time	pelvis_tilt	pelvis_list	pelvis_rotation	pelvis_tx	pelvis_ty	pelvis_tz	hip_flexion_r	hip_adduction_r	hip_rotation_r	knee_angle_r	knee_angle_r_beta	ankle_angle_r	subtalar_angle_r	mtp_angle_r	hip_flexion_l	hip_adduction_l	hip_rotation_l	knee_angle_l	knee_angle_l_beta	ankle_angle_l	subtalar_angle_l	mtp_angle_l	L5_S1_Flex_Ext	L5_S1_Lat_Bending	L5_S1_axial_rotation	L4_L5_Flex_Ext	L4_L5_Lat_Bending	L4_L5_axial_rotation	L3_L4_Flex_Ext	L3_L4_Lat_Bending	L3_L4_axial_rotation	L2_L3_Flex_Ext	L2_L3_Lat_Bending	L2_L3_axial_rotation	L1_L2_Flex_Ext	L1_L2_Lat_Bending	L1_L2_axial_rotation	L1_T12_Flex_Ext	L1_T12_Lat_Bending	L1_T12_axial_rotation	Abs_r3	Abs_r2	Abs_r1	Abs_t1	Abs_t2	neck_flexion	neck_bending	neck_rotation	arm_flex_r	arm_add_r	arm_rot_r	elbow_flex_r	pro_sup_r	wrist_flex_r	wrist_dev_r	arm_flex_l	arm_add_l	arm_rot_l	elbow_flex_l	pro_sup_l	wrist_flex_l	wrist_dev_l
      3.01960784	      5.04371097	     -0.71544947	     89.91264109	      0.32293460	      1.06854413	      0.37801777	     -4.81426817	     -0.30776832	    -11.36384722	      7.33887558	      0.12808754	     39.53624135	     15.99755849	      0.00000000	     -5.34620421	     -0.46942583	     14.16829452	      3.81401617	      0.06656714	     31.33387789	    -15.93347601	      0.00000000	      0.24583114	     -0.09636000	     -0.06229420	      0.45653302	     -0.12815880	     -0.06618759	      0.40387599	     -0.23428970	     -0.06618759	      0.28096042	     -0.23428970	     -0.05450743	      0.22827880	     -0.19649731	     -0.05061404	      0.14046792	     -0.14926164	     -0.04672065	      1.75594728	     -1.09004360	     -0.34646166	      0.00000000	      0.00000000	     25.68250053	      7.43671312	     -8.18454992	      6.56071851	     -4.95888271	     52.56249211	     40.75742755	      1.84584529	     -6.50260137	     13.49772308	     13.66665190	     -8.11786408	     74.16729894	     35.42294570	     68.93997974	     -7.34784526	    -10.99542918
      3.03921569	      5.24198921	     -0.67562956	     89.76905825	      0.32308022	      1.06833982	      0.37729614	     -4.73524787	     -0.16286557	    -11.35903983	      7.74868489	      0.13524006	     39.56849434	     15.98720687	      0.00000000	     -5.56448684	     -0.67494509	     14.10247859	      3.53182373	      0.06164195	     31.31954302	    -16.02543132	      0.00000000	      0.26368754	     -0.07519567	     -0.02475624	      0.48969414	     -0.10001024	     -0.02630350	      0.43321226	     -0.18283075	     -0.02630350	      0.30136849	     -0.18283075	     -0.02166171	      0.24486025	     -0.15333901	     -0.02011444	      0.15067106	     -0.11647809	     -0.01856718	      1.88349375	     -0.85062845	     -0.13768676	      0.00000000	      0.00000000	     25.95274557	      7.48040667	     -9.19855975	      6.14332134	     -4.90797157	     51.41049857	     40.78143679	      1.70606347	     -6.75505600	     13.74617759	     14.01264232	     -7.87629567	     75.60054062	     35.24422582	     66.52382402	     -6.91434358	    -10.76799091
      3.05882353	      5.44161310	     -0.65358643	     89.88199325	      0.32294360	      1.06803933	      0.37675990	     -4.65045899	     -0.00181648	    -11.73811272	      8.15818392	      0.14238717	     39.53810801	     16.10602358	      0.00000000	     -5.59089580	     -0.88375023	     13.86297895	      3.56047877	      0.06214208	     31.58607817	    -15.71836578	      0.00000000	      0.28432218	     -0.05313333	     -0.04755860	      0.52801472	     -0.07066733	     -0.05053102	      0.46711291	     -0.12918839	     -0.05053102	      0.32495182	     -0.12918839	     -0.04161378	      0.26402158	     -0.10834950	     -0.03864137	      0.16246169	     -0.08230353	     -0.03566895	      2.03088492	     -0.60105490	     -0.26450668	      0.00000000	      0.00000000	     26.14752663	      7.47462472	     -9.99281140	      5.64499626	     -4.81650662	     50.08332138	     40.95668813	      1.55416978	     -7.56411832	     13.70664917	     14.25872056	     -7.64389227	     76.60676683	     35.07762799	     65.41291286	     -7.21724407	    -10.77297479
      3.07843137	      5.54334288	     -0.55641633	     89.82239665	      0.32299356	      1.06784885	      0.37643413	     -4.60340269	      0.02757140	    -11.92075015	      8.63454130	      0.15070118	     39.43256278	     16.11735124	      0.00000000	     -5.75981366	     -0.97192296	     13.64861767	      3.45048071	      0.06022225	     31.70700350	    -15.57588996	      0.00000000	      0.29231271	     -0.04059558	     -0.05086046	      0.54285394	     -0.05399212	     -0.05403924	      0.48024055	     -0.09870409	     -0.05403924	      0.33408420	     -0.09870409	     -0.04450290	      0.27144158	     -0.08278250	     -0.04132413	      0.16702748	     -0.06288255	     -0.03814535	      2.08796046	     -0.45922530	     -0.28287063	      0.00000000	      0.00000000	     26.32745010	      7.38786147	    -10.59874545	      5.11359241	     -4.59533098	     48.44631983	     41.02391212	      1.44785389	     -8.38389575	     13.88678925	     14.32282165	     -7.43619493	     76.78549329	     34.93218889	     65.58645004	     -7.73861505	    -10.91979105
      3.09803922	      5.57442669	     -0.49109113	     89.89223443	      0.32296681	      1.06760505	      0.37614316	     -4.54278076	     -0.00282298	    -12.15827518	      9.10548334	      0.15892066	     39.32288434	     15.99700264	      0.00000000	     -5.94002534	     -1.00114603	     14.06841293	      3.19172693	      0.05570614	     31.59748945	    -16.11063147	      0.00000000	      0.30461489	     -0.03739719	     -0.09791727	      0.56570031	     -0.04973827	     -0.10403710	      0.50045180	     -0.09092754	     -0.10403710	      0.34814436	     -0.09092754	     -0.08567761	      0.28286539	     -0.07626036	     -0.07955778	      0.17405695	     -0.05792825	     -0.07343796	      2.17583370	     -0.42304453	     -0.54458650	      0.00000000	      0.00000000	     26.52360565	      7.38612408	    -10.98560467	      4.68430571	     -4.32690672	     47.09369877	     40.97956238	      1.41516143	     -8.83823465	     13.94879508	     14.10353675	     -7.36876636	     75.77744910	     35.00409779	     67.16208853	     -8.10282619	    -10.74315926
      3.11764706	      5.60097015	     -0.46016250	     90.06875495	      0.32273546	      1.06736258	      0.37606585	     -4.44894253	     -0.04279535	    -12.61493082	      9.53393290	      0.16639852	     39.33731566	     16.04741175	      0.00000000	     -5.99265817	     -1.02828115	     14.28008001	      3.07052821	      0.05359083	     31.70977098	    -16.22441476	      0.00000000	      0.31496912	     -0.03496610	     -0.14912377	      0.58492915	     -0.04650491	     -0.15844401	      0.51746277	     -0.08501658	     -0.15844401	      0.35997821	     -0.08501658	     -0.13048330	      0.29248033	     -0.07130287	     -0.12116307	      0.17997336	     -0.05416249	     -0.11184283	      2.24979293	     -0.39554353	     -0.82938169	      0.00000000	      0.00000000	     26.70466013	      7.14582329	    -11.44913297	      4.29044405	     -4.13114038	     45.70579559	     41.12303092	      1.38648723	     -9.50971481	     13.78067744	     14.16027735	     -7.25975976	     75.57937788	     34.98895539	     68.36923146	     -9.01931970	    -11.07561359
      3.13725490	      5.62244588	     -0.46611462	     90.16359690	      0.32266438	      1.06716871	      0.37608737	     -4.29217953	     -0.09985980	    -13.10563487	      9.92794964	      0.17327541	     39.55730176	     16.35731771	      0.00000000	     -5.96395348	     -1.04190602	     14.18989680	      3.05432000	      0.05330794	     31.93683453	    -16.05505805	      0.00000000	      0.32345424	     -0.03675913	     -0.17471004	      0.60068688	     -0.04888964	     -0.18562942	      0.53140298	     -0.08937615	     -0.18562942	      0.36967586	     -0.08937615	     -0.15287128	      0.30035961	     -0.07495922	     -0.14195191	      0.18482175	     -0.05693989	     -0.13103253	      2.31040132	     -0.41582662	     -0.97168482	      0.00000000	      0.00000000	     26.81926442	      6.66575711	    -12.16258114	      3.88565651	     -3.89060882	     43.98652464	     41.38520681	      1.39594988	    -10.34845702	     13.68669042	     14.28952659	     -7.21345120	     75.49185928	     35.10510135	     69.37192622	    -10.43402280	    -11.31692199
      3.15686275	      5.63712139	     -0.43620553	     90.14398951	      0.32292810	      1.06726961	      0.37558874	     -4.32191512	     -0.08198231	    -13.09931624	      9.93872489	      0.17346347	     39.56683600	     16.35959141	      0.00000000	     -6.02048821	     -1.06319176	     14.18490156	      3.05915666	      0.05339236	     31.94978031	    -16.06301637	      0.00000000	      0.33995229	     -0.04097162	     -0.18131524	      0.63132541	     -0.05449225	     -0.19264744	      0.55850763	     -0.09961839	     -0.19264744	      0.38853148	     -0.09961839	     -0.15865083	      0.31567970	     -0.08354932	     -0.14731863	      0.19424874	     -0.06346504	     -0.13598643	      2.42824525	     -0.46347914	     -1.00842096	      0.00000000	      0.00000000	     26.82084570	      6.65787142	    -12.16606237	      3.94878179	     -3.94915356	     43.94584287	     41.37884666	      1.39563744	    -10.34856492	     13.67450723	     14.41206580	     -7.19765610	     75.44599283	     35.11414208	     69.36650408	    -10.44692347	    -11.32931492
